<svg version="1.1" viewBox="0 0 12 12" xmlns="http://www.w3.org/2000/svg" xmlns:xlink="http://www.w3.org/1999/xlink">
    <g transform="translate(0,-4)">
        <path d="m10.5 6a1 1 0 0 0-1 1 1 1 0 0 0 1 1 1 1 0 0 0 1-1 1 1 0 0 0-1-1zm-9 1a1 1 0 0 0-1 1v5a1 1 0 0 0 1 1 1 1 0 0 0 1-1v-3a1 1 0 0 1 1-1 1 1 0 0 1 1 1v2a1 1 0 0 0 1 1 1 1 0 0 0 1-1v-2a1 1 0 0 1 1-1 1 1 0 0 1 1 1v3a1 1 0 0 0 1 1 1 1 0 0 0 1-1v-4a2 2 0 0 1-2-2h-7z" fill="#ffffff" stroke-linecap="square" style="paint-order:stroke fill markers"/>
    </g>
</svg>
